<svg id="Capa_1" enable-background="new 0 0 511.985 511.985" height="512" viewBox="0 0 511.985 511.985" width="512" xmlns="http://www.w3.org/2000/svg"><g><path d="m205.278 372.977c-.001 0-.002 0-.003 0-.02 0-.039.003-.059.003-9.991.067-13.364-.477-21.203-5.604-3.466-2.269-8.113-1.295-10.382 2.17-2.268 3.467-1.296 8.115 2.171 10.382 8.577 5.611 14.508 7.386 21.973 7.881v6.692c0 4.142 3.357 7.5 7.5 7.5s7.5-3.358 7.5-7.5v-7.321c15.228-3.249 24.131-15.919 26.123-27.767 2.599-15.456-5.481-28.894-20.586-34.232-9.131-3.227-19.25-7.142-25.073-11.709-2.466-1.934-3.546-5.906-2.752-10.119.768-4.077 3.545-9.022 9.035-10.676 2.119-.638 4.101-.963 5.937-1.067.058-.001.114-.006.171-.009 7.993-.394 13.14 3.456 14.267 4.394 3.185 2.648 7.912 2.216 10.562-.968 2.649-3.184 2.217-7.913-.967-10.562-1.57-1.306-7.586-5.853-16.718-7.381v-5.975c0-4.142-3.357-7.5-7.5-7.5s-7.5 3.358-7.5 7.5v6.525c-.848.199-1.705.418-2.579.681-9.976 3.005-17.429 11.535-19.45 22.26-1.847 9.802 1.309 19.267 8.236 24.7 6.07 4.761 14.568 8.831 29.331 14.049 12.045 4.257 11.306 14.55 10.793 17.603-1.288 7.667-7.73 15.949-18.827 16.05z"/><path d="m495.61 165.869c0-8.694 3.854-19.324 7.581-29.604 6.229-17.183 12.671-34.951 4.143-49.679-6.144-10.628-17.249-14.929-25.068-17.239-3.97-1.175-8.144 1.095-9.317 5.067-1.174 3.973 1.095 8.145 5.067 9.318 8.51 2.515 13.699 5.807 16.335 10.366 5.026 8.68.029 22.462-5.261 37.054-4.169 11.499-8.479 23.388-8.479 34.717 0 11.33 4.311 23.219 8.479 34.718 5.29 14.592 10.287 28.375 5.259 37.058-5.31 9.18-20.084 11.739-35.726 14.448-11.771 2.039-23.943 4.146-33.298 9.564-8.981 5.194-16.615 14.475-23.998 23.451-9.818 11.938-19.972 24.281-31.276 24.281-11.309 0-21.466-12.348-31.288-24.29-7.381-8.972-15.012-18.25-23.984-23.441-9.362-5.419-21.535-7.527-33.307-9.566-15.644-2.709-30.42-5.268-35.73-14.449-5.022-8.68-.027-22.462 5.261-37.054 4.168-11.5 8.478-23.391 8.478-34.721s-4.31-23.221-8.478-34.72c-3.59-9.907-7.042-19.438-7.318-27.256.001-.038.006-.076.006-.114 0-.134-.013-.265-.02-.396-.062-3.492.534-6.63 2.072-9.289 5.312-9.183 20.091-11.74 35.739-14.448 11.768-2.036 23.936-4.142 33.295-9.555 8.975-5.192 16.607-14.473 23.987-23.448 9.823-11.943 19.979-24.294 31.287-24.294 11.304 0 21.456 12.346 31.274 24.286 7.384 8.979 15.019 18.263 23.994 23.454 7.327 4.246 16.224 6.367 23.96 7.881 4.072.797 8.006-1.854 8.802-5.919s-1.854-8.005-5.919-8.801c-6.518-1.276-13.91-3.003-19.327-6.143-6.631-3.834-13.088-11.686-19.924-19.999-11.471-13.949-24.472-29.758-42.861-29.758-18.393 0-31.397 15.814-42.872 29.767-6.834 8.31-13.289 16.158-19.913 19.991-7.043 4.073-17.871 5.947-28.342 7.759-18.358 3.177-37.342 6.462-46.166 21.718-1.798 3.108-2.923 6.352-3.532 9.696h-70.365c-17.132 0-31.07 13.938-31.07 31.07v207.49h-38.2c-10.891 0-20.459 6.158-24.971 16.071-4.508 9.906-2.869 21.154 4.272 29.352l30.66 35.24c1.483 1.705 3.566 2.577 5.661 2.577 1.746 0 3.5-.606 4.92-1.842 3.125-2.719 3.454-7.456.735-10.581l-30.663-35.244c-3.282-3.768-4.005-8.735-1.933-13.289 2.075-4.561 6.307-7.284 11.317-7.284h45.699c4.143 0 7.5-3.358 7.5-7.5v-214.99c0-8.861 7.209-16.07 16.07-16.07h70.571c1.39 8.19 4.452 16.654 7.47 24.981 3.726 10.282 7.579 20.914 7.579 29.609 0 8.696-3.854 19.328-7.579 29.609-6.227 17.181-12.665 34.946-4.144 49.676 6.063 10.483 16.925 15.314 29.083 18.342v78.843c0 4.142 3.357 7.5 7.5 7.5h45.72c5.008 0 9.238 2.724 11.314 7.287 2.072 4.554 1.351 9.521-1.933 13.29l-102.236 117.518c-5.005 5.75-12.248 9.049-19.874 9.05-.001 0-.002 0-.003 0-7.623 0-14.865-3.296-19.867-9.039l-51.9-59.66c-2.718-3.126-7.455-3.454-10.581-.736-3.125 2.719-3.454 7.456-.735 10.581l51.902 59.663c7.854 9.019 19.219 14.191 31.182 14.191h.005c11.966-.002 23.333-5.179 31.188-14.204l102.237-117.517c7.143-8.2 8.78-19.447 4.271-29.353-4.512-9.915-14.079-16.074-24.967-16.074h-38.22v-68.326c.691.121 1.382.24 2.071.36 10.475 1.814 21.307 3.689 28.353 7.768 6.625 3.833 13.08 11.68 19.913 19.987 11.475 13.95 24.48 29.761 42.873 29.761 18.389 0 31.391-15.807 42.861-29.753 6.835-8.31 13.292-16.16 19.927-19.997 7.04-4.078 17.87-5.953 28.344-7.767 18.352-3.179 37.328-6.465 46.148-21.715 8.531-14.733 2.09-32.5-4.14-49.684-3.726-10.278-7.58-20.908-7.58-29.602z"/><path d="m385.74 187.331c3.774 1.707 8.217.028 9.923-3.745 1.706-3.774.029-8.217-3.745-9.924l-45.37-20.508c-.066-.03-.134-.059-.201-.087-3.224-1.344-6.899-.617-9.365 1.855-2.467 2.471-3.188 6.149-1.839 9.369.024.057.048.113.073.168l20.393 45.482c1.248 2.783 3.983 4.434 6.848 4.434 1.026 0 2.068-.211 3.064-.658 3.779-1.695 5.47-6.133 3.775-9.912l-2.964-6.611 12.834-12.834zm-25.975-4.785-3.912-8.726 8.704 3.935z"/><path d="m404.853 171.917c1.506 0 3.021-.452 4.326-1.375.668-.472.973-.688 12.704-12.55 2.912-2.945 2.886-7.694-.06-10.606-2.944-2.912-7.693-2.887-10.606.059-2.144 2.168-4.403 4.445-6.341 6.391l-28.101-28.102c-2.93-2.929-7.678-2.929-10.607 0s-2.929 7.678 0 10.606l33.379 33.379c1.452 1.453 3.372 2.198 5.306 2.198z"/><path d="m432.628 144.197c1.989 0 3.896-.79 5.304-2.197l13.948-13.948c2.929-2.929 2.929-7.678 0-10.606-2.93-2.929-7.678-2.929-10.607 0l-8.645 8.645-5.945-5.945 7.616-7.616c2.93-2.929 2.93-7.677.001-10.606-2.93-2.929-7.679-2.93-10.606 0l-7.617 7.616-5.945-5.945 8.646-8.645c2.929-2.929 2.929-7.678 0-10.606-2.93-2.929-7.678-2.929-10.607 0l-13.948 13.948c-2.929 2.929-2.929 7.678 0 10.606l33.101 33.102c1.408 1.407 3.315 2.197 5.304 2.197z"/><path d="m322.342 229.956c-4.151-.208-7.656 2.985-7.859 7.122s2.985 7.656 7.123 7.859c.447.022.896.033 1.343.033 7.657 0 15.216-3.204 20.924-8.911 7.587-7.587 9.082-18.85 3.556-26.779-4.196-6.019-13.106-10.407-25.54-4.677-5.342 2.463-10.554 4.547-12.451 5.292-.66.009-1.104-.382-1.368-.736-.681-.908-.641-2.229.108-3.623 2.862-5.33 9.807-6.205 10.078-6.237 4.094-.39 7.115-4.008 6.76-8.113-.356-4.126-3.997-7.182-8.119-6.825-5.599.485-16.519 3.996-21.934 14.079-3.52 6.554-3.098 14.107 1.1 19.712 3.962 5.29 10.42 7.736 16.853 6.379.387-.082.768-.193 1.137-.335.281-.108 6.979-2.679 14.118-5.971 2.638-1.216 5.85-1.951 6.953-.368.95 1.364 1.018 4.721-1.857 7.595-3.009 3.009-7.095 4.692-10.925 4.504z"/><path d="m74.751 157.456.639-2.41c3.246-12.263-3.621-25.063-15.633-29.141l-25.614-8.695c-6.335-2.15-13.348-1.569-19.241 1.593-5.895 3.162-10.257 8.684-11.968 15.15l-1.585 5.989c-1.712 6.466-.653 13.423 2.904 19.087 3.559 5.664 9.366 9.638 15.935 10.903l26.561 5.116c1.528.294 3.053.436 4.56.436 10.776-.002 20.595-7.269 23.442-18.028zm-13.861-6.25-.639 2.41v.002c-1.236 4.671-5.922 7.616-10.666 6.699l-26.562-5.116c-2.538-.489-4.693-1.963-6.068-4.152s-1.768-4.771-1.106-7.27l1.585-5.989c.662-2.499 2.28-4.548 4.559-5.771 1.366-.733 2.85-1.104 4.347-1.104.998 0 2.002.165 2.981.498l25.614 8.695c4.575 1.553 7.19 6.429 5.955 11.098z"/><path d="m51.174 89.754 20.445 17.712c4.549 3.94 10.205 5.889 15.852 5.889 6.254 0 12.495-2.393 17.195-7.122l1.758-1.769c8.942-8.998 9.396-23.517 1.031-33.054l-17.835-20.335c-4.409-5.029-10.772-8.033-17.458-8.242-6.694-.204-13.224 2.393-17.939 7.136l-4.368 4.395c-4.716 4.745-7.276 11.299-7.027 17.983.248 6.684 3.291 13.028 8.346 17.407zm9.319-24.816 4.368-4.395c1.752-1.763 4.062-2.723 6.533-2.723.1 0 .199.001.299.005 2.584.081 4.945 1.195 6.649 3.139l17.835 20.337c3.186 3.632 3.014 9.162-.393 12.589l-1.758 1.769c-3.404 3.427-8.935 3.634-12.586.47l-20.445-17.712c-1.953-1.692-3.082-4.046-3.179-6.629-.095-2.584.855-5.017 2.677-6.85z"/><path d="m125.768 59.331c3.439 9.933 12.847 16.296 22.937 16.296 2.086 0 4.201-.272 6.299-.841h.001l2.405-.652c12.243-3.321 19.896-15.667 17.42-28.109l-5.276-26.531c-1.305-6.561-5.314-12.344-11-15.867-5.686-3.523-12.649-4.538-19.103-2.789l-5.98 1.622c-6.455 1.75-11.95 6.146-15.076 12.059s-3.664 12.93-1.476 19.25zm5.886-37.801c1.208-2.285 3.247-3.916 5.741-4.592l5.98-1.622c.81-.219 1.628-.328 2.44-.328 1.69 0 3.351.471 4.835 1.391 2.197 1.362 3.686 3.508 4.19 6.043l5.276 26.531c.942 4.738-1.972 9.441-6.636 10.706l-2.405.652c-4.667 1.266-9.554-1.321-11.136-5.886l-8.85-25.561c-.843-2.445-.643-5.049.565-7.334z"/><path d="m491.772 342.047-26.561-5.116c-12.46-2.402-24.759 5.327-28.003 17.591l-.639 2.41c-3.246 12.263 3.621 25.063 15.633 29.141l25.614 8.695c2.521.856 5.149 1.279 7.772 1.279 3.967 0 7.921-.968 11.469-2.872 5.895-3.162 10.257-8.684 11.968-15.15l1.585-5.989c1.712-6.466.653-13.423-2.904-19.087-3.558-5.663-9.366-9.637-15.934-10.902zm4.339 26.152-1.585 5.989c-.662 2.499-2.28 4.548-4.559 5.771-2.277 1.221-4.88 1.437-7.328.606l-25.614-8.695c-4.575-1.553-7.19-6.428-5.955-11.097l.639-2.41s0-.001 0-.002c1.085-4.098 4.823-6.866 8.929-6.866.574 0 1.155.054 1.737.167l26.562 5.116c2.538.489 4.693 1.963 6.068 4.152s1.767 4.769 1.106 7.269z"/><path d="m460.785 422.223-20.445-17.712c-9.587-8.305-24.103-7.766-33.047 1.233l-1.758 1.769c-8.942 8.998-9.396 23.517-1.031 33.054l17.835 20.336c4.409 5.029 10.772 8.033 17.458 8.242.25.008.499.012.748.012 6.423 0 12.652-2.581 17.191-7.147l4.368-4.395c4.716-4.745 7.276-11.299 7.027-17.983-.248-6.685-3.291-13.03-8.346-17.409zm-9.319 24.816-4.368 4.395c-1.822 1.833-4.27 2.812-6.832 2.718-2.584-.081-4.945-1.195-6.649-3.139l-17.835-20.337c-3.186-3.632-3.014-9.162.393-12.589l1.758-1.769c3.405-3.425 8.936-3.633 12.586-.47l20.446 17.712c1.953 1.692 3.082 4.046 3.179 6.629.094 2.584-.856 5.017-2.678 6.85z"/><path d="m386.192 452.646c-4.15-11.986-16.991-18.771-29.235-15.456h-.001l-2.405.652c-12.243 3.321-19.896 15.667-17.42 28.109l5.276 26.531c1.305 6.561 5.314 12.344 11 15.867 3.859 2.392 8.308 3.628 12.785 3.628 2.119 0 4.244-.277 6.317-.839l5.98-1.622c6.455-1.75 11.95-6.146 15.076-12.059s3.664-12.93 1.476-19.25zm-5.887 37.802c-1.208 2.285-3.247 3.916-5.741 4.592l-5.98 1.622c-2.493.675-5.077.3-7.275-1.062-2.197-1.362-3.686-3.508-4.19-6.043l-5.276-26.531c-.942-4.738 1.972-9.441 6.636-10.706l2.405-.652c4.666-1.264 9.555 1.321 11.136 5.886l8.85 25.561c.843 2.443.643 5.047-.565 7.333z"/></g></svg>